<svg xmlns="http://www.w3.org/2000/svg" version="1.1" id="svgMaze" width="400px" height="400px" viewBox="0 0 350 350">
    
  <rect height="350" width="350" fill="#F1EEE7" stroke-width="1" stroke="#CCB"></rect><clipPath id="tileClipPath0"><rect height="50" width="50" x="0" y="0"></rect></clipPath><image height="200" width="250" clip-path="url(#tileClipPath0)" x="-200" y="-150" xlink:href="https://blockly.games/maze/tiles_pegman.png"></image><clipPath id="tileClipPath1"><rect height="50" width="50" x="50" y="0"></rect></clipPath><image height="200" width="250" clip-path="url(#tileClipPath1)" x="-150" y="-150" xlink:href="https://blockly.games/maze/tiles_pegman.png"></image><clipPath id="tileClipPath2"><rect height="50" width="50" x="100" y="0"></rect></clipPath><image height="200" width="250" clip-path="url(#tileClipPath2)" x="-100" y="-150" xlink:href="https://blockly.games/maze/tiles_pegman.png"></image><clipPath id="tileClipPath3"><rect height="50" width="50" x="150" y="0"></rect></clipPath><image height="200" width="250" clip-path="url(#tileClipPath3)" x="-50" y="-150" xlink:href="https://blockly.games/maze/tiles_pegman.png"></image><clipPath id="tileClipPath4"><rect height="50" width="50" x="200" y="0"></rect></clipPath><image height="200" width="250" clip-path="url(#tileClipPath4)" x="150" y="-150" xlink:href="https://blockly.games/maze/tiles_pegman.png"></image><clipPath id="tileClipPath5"><rect height="50" width="50" x="250" y="0"></rect></clipPath><image height="200" width="250" clip-path="url(#tileClipPath5)" x="50" y="-150" xlink:href="https://blockly.games/maze/tiles_pegman.png"></image><clipPath id="tileClipPath6"><rect height="50" width="50" x="300" y="0"></rect></clipPath><image height="200" width="250" clip-path="url(#tileClipPath6)" x="100" y="-150" xlink:href="https://blockly.games/maze/tiles_pegman.png"></image><clipPath id="tileClipPath7"><rect height="50" width="50" x="0" y="50"></rect></clipPath><image height="200" width="250" clip-path="url(#tileClipPath7)" x="-200" y="-100" xlink:href="https://blockly.games/maze/tiles_pegman.png"></image><clipPath id="tileClipPath8"><rect height="50" width="50" x="50" y="50"></rect></clipPath><image height="200" width="250" clip-path="url(#tileClipPath8)" x="-150" y="-100" xlink:href="https://blockly.games/maze/tiles_pegman.png"></image><clipPath id="tileClipPath9"><rect height="50" width="50" x="100" y="50"></rect></clipPath><image height="200" width="250" clip-path="url(#tileClipPath9)" x="-50" y="50" xlink:href="https://blockly.games/maze/tiles_pegman.png"></image><clipPath id="tileClipPath10"><rect height="50" width="50" x="150" y="50"></rect></clipPath><image height="200" width="250" clip-path="url(#tileClipPath10)" x="-50" y="-100" xlink:href="https://blockly.games/maze/tiles_pegman.png"></image><clipPath id="tileClipPath11"><rect height="50" width="50" x="200" y="50"></rect></clipPath><image height="200" width="250" clip-path="url(#tileClipPath11)" x="0" y="-100" xlink:href="https://blockly.games/maze/tiles_pegman.png"></image><clipPath id="tileClipPath12"><rect height="50" width="50" x="250" y="50"></rect></clipPath><image height="200" width="250" clip-path="url(#tileClipPath12)" x="50" y="-100" xlink:href="https://blockly.games/maze/tiles_pegman.png"></image><clipPath id="tileClipPath13"><rect height="50" width="50" x="300" y="50"></rect></clipPath><image height="200" width="250" clip-path="url(#tileClipPath13)" x="250" y="-100" xlink:href="https://blockly.games/maze/tiles_pegman.png"></image><clipPath id="tileClipPath14"><rect height="50" width="50" x="0" y="100"></rect></clipPath><image height="200" width="250" clip-path="url(#tileClipPath14)" x="-200" y="-50" xlink:href="https://blockly.games/maze/tiles_pegman.png"></image><clipPath id="tileClipPath15"><rect height="50" width="50" x="50" y="100"></rect></clipPath><image height="200" width="250" clip-path="url(#tileClipPath15)" x="-150" y="-50" xlink:href="https://blockly.games/maze/tiles_pegman.png"></image><clipPath id="tileClipPath16"><rect height="50" width="50" x="100" y="100"></rect></clipPath><image height="200" width="250" clip-path="url(#tileClipPath16)" x="-100" y="-50" xlink:href="https://blockly.games/maze/tiles_pegman.png"></image><clipPath id="tileClipPath17"><rect height="50" width="50" x="150" y="100"></rect></clipPath><image height="200" width="250" clip-path="url(#tileClipPath17)" x="-50" y="-50" xlink:href="https://blockly.games/maze/tiles_pegman.png"></image><clipPath id="tileClipPath18"><rect height="50" width="50" x="200" y="100"></rect></clipPath><image height="200" width="250" clip-path="url(#tileClipPath18)" x="50" y="100" xlink:href="https://blockly.games/maze/tiles_pegman.png"></image><clipPath id="tileClipPath19"><rect height="50" width="50" x="250" y="100"></rect></clipPath><image height="200" width="250" clip-path="url(#tileClipPath19)" x="200" y="-50" xlink:href="https://blockly.games/maze/tiles_pegman.png"></image><clipPath id="tileClipPath20"><rect height="50" width="50" x="300" y="100"></rect></clipPath><image height="200" width="250" clip-path="url(#tileClipPath20)" x="100" y="-50" xlink:href="https://blockly.games/maze/tiles_pegman.png"></image><clipPath id="tileClipPath21"><rect height="50" width="50" x="0" y="150"></rect></clipPath><image height="200" width="250" clip-path="url(#tileClipPath21)" x="-50" y="0" xlink:href="https://blockly.games/maze/tiles_pegman.png"></image><clipPath id="tileClipPath22"><rect height="50" width="50" x="50" y="150"></rect></clipPath><image height="200" width="250" clip-path="url(#tileClipPath22)" x="-150" y="0" xlink:href="https://blockly.games/maze/tiles_pegman.png"></image><clipPath id="tileClipPath23"><rect height="50" width="50" x="100" y="150"></rect></clipPath><image height="200" width="250" clip-path="url(#tileClipPath23)" x="-50" y="100" xlink:href="https://blockly.games/maze/tiles_pegman.png"></image><clipPath id="tileClipPath24"><rect height="50" width="50" x="150" y="150"></rect></clipPath><image height="200" width="250" clip-path="url(#tileClipPath24)" x="100" y="0" xlink:href="https://blockly.games/maze/tiles_pegman.png"></image><clipPath id="tileClipPath25"><rect height="50" width="50" x="200" y="150"></rect></clipPath><image height="200" width="250" clip-path="url(#tileClipPath25)" x="50" y="150" xlink:href="https://blockly.games/maze/tiles_pegman.png"></image><clipPath id="tileClipPath26"><rect height="50" width="50" x="250" y="150"></rect></clipPath><image height="200" width="250" clip-path="url(#tileClipPath26)" x="100" y="150" xlink:href="https://blockly.games/maze/tiles_pegman.png"></image><clipPath id="tileClipPath27"><rect height="50" width="50" x="300" y="150"></rect></clipPath><image height="200" width="250" clip-path="url(#tileClipPath27)" x="100" y="0" xlink:href="https://blockly.games/maze/tiles_pegman.png"></image><clipPath id="tileClipPath28"><rect height="50" width="50" x="0" y="200"></rect></clipPath><image height="200" width="250" clip-path="url(#tileClipPath28)" x="-200" y="50" xlink:href="https://blockly.games/maze/tiles_pegman.png"></image><clipPath id="tileClipPath29"><rect height="50" width="50" x="50" y="200"></rect></clipPath><image height="200" width="250" clip-path="url(#tileClipPath29)" x="0" y="50" xlink:href="https://blockly.games/maze/tiles_pegman.png"></image><clipPath id="tileClipPath30"><rect height="50" width="50" x="100" y="200"></rect></clipPath><image height="200" width="250" clip-path="url(#tileClipPath30)" x="100" y="100" xlink:href="https://blockly.games/maze/tiles_pegman.png"></image><clipPath id="tileClipPath31"><rect height="50" width="50" x="150" y="200"></rect></clipPath><image height="200" width="250" clip-path="url(#tileClipPath31)" x="0" y="100" xlink:href="https://blockly.games/maze/tiles_pegman.png"></image><clipPath id="tileClipPath32"><rect height="50" width="50" x="200" y="200"></rect></clipPath><image height="200" width="250" clip-path="url(#tileClipPath32)" x="50" y="50" xlink:href="https://blockly.games/maze/tiles_pegman.png"></image><clipPath id="tileClipPath33"><rect height="50" width="50" x="250" y="200"></rect></clipPath><image height="200" width="250" clip-path="url(#tileClipPath33)" x="250" y="50" xlink:href="https://blockly.games/maze/tiles_pegman.png"></image><clipPath id="tileClipPath34"><rect height="50" width="50" x="300" y="200"></rect></clipPath><image height="200" width="250" clip-path="url(#tileClipPath34)" x="100" y="50" xlink:href="https://blockly.games/maze/tiles_pegman.png"></image><clipPath id="tileClipPath35"><rect height="50" width="50" x="0" y="250"></rect></clipPath><image height="200" width="250" clip-path="url(#tileClipPath35)" x="-200" y="100" xlink:href="https://blockly.games/maze/tiles_pegman.png"></image><clipPath id="tileClipPath36"><rect height="50" width="50" x="50" y="250"></rect></clipPath><image height="200" width="250" clip-path="url(#tileClipPath36)" x="50" y="100" xlink:href="https://blockly.games/maze/tiles_pegman.png"></image><clipPath id="tileClipPath37"><rect height="50" width="50" x="100" y="250"></rect></clipPath><image height="200" width="250" clip-path="url(#tileClipPath37)" x="-50" y="250" xlink:href="https://blockly.games/maze/tiles_pegman.png"></image><clipPath id="tileClipPath38"><rect height="50" width="50" x="150" y="250"></rect></clipPath><image height="200" width="250" clip-path="url(#tileClipPath38)" x="0" y="250" xlink:href="https://blockly.games/maze/tiles_pegman.png"></image><clipPath id="tileClipPath39"><rect height="50" width="50" x="200" y="250"></rect></clipPath><image height="200" width="250" clip-path="url(#tileClipPath39)" x="50" y="200" xlink:href="https://blockly.games/maze/tiles_pegman.png"></image><clipPath id="tileClipPath40"><rect height="50" width="50" x="250" y="250"></rect></clipPath><image height="200" width="250" clip-path="url(#tileClipPath40)" x="50" y="100" xlink:href="https://blockly.games/maze/tiles_pegman.png"></image><clipPath id="tileClipPath41"><rect height="50" width="50" x="300" y="250"></rect></clipPath><image height="200" width="250" clip-path="url(#tileClipPath41)" x="100" y="100" xlink:href="https://blockly.games/maze/tiles_pegman.png"></image><clipPath id="tileClipPath42"><rect height="50" width="50" x="0" y="300"></rect></clipPath><image height="200" width="250" clip-path="url(#tileClipPath42)" x="-200" y="150" xlink:href="https://blockly.games/maze/tiles_pegman.png"></image><clipPath id="tileClipPath43"><rect height="50" width="50" x="50" y="300"></rect></clipPath><image height="200" width="250" clip-path="url(#tileClipPath43)" x="-150" y="150" xlink:href="https://blockly.games/maze/tiles_pegman.png"></image><clipPath id="tileClipPath44"><rect height="50" width="50" x="100" y="300"></rect></clipPath><image height="200" width="250" clip-path="url(#tileClipPath44)" x="-100" y="150" xlink:href="https://blockly.games/maze/tiles_pegman.png"></image><clipPath id="tileClipPath45"><rect height="50" width="50" x="150" y="300"></rect></clipPath><image height="200" width="250" clip-path="url(#tileClipPath45)" x="-50" y="150" xlink:href="https://blockly.games/maze/tiles_pegman.png"></image><clipPath id="tileClipPath46"><rect height="50" width="50" x="200" y="300"></rect></clipPath><image height="200" width="250" clip-path="url(#tileClipPath46)" x="0" y="150" xlink:href="https://blockly.games/maze/tiles_pegman.png"></image><clipPath id="tileClipPath47"><rect height="50" width="50" x="250" y="300"></rect></clipPath><image height="200" width="250" clip-path="url(#tileClipPath47)" x="50" y="150" xlink:href="https://blockly.games/maze/tiles_pegman.png"></image><clipPath id="tileClipPath48"><rect height="50" width="50" x="300" y="300"></rect></clipPath><image height="200" width="250" clip-path="url(#tileClipPath48)" x="100" y="150" xlink:href="https://blockly.games/maze/tiles_pegman.png"></image><image id="finish" height="34" width="20" xlink:href="https://blockly.games/maze/marker.png" x="215" y="195.99999999999997"></image><clipPath id="pegmanClipPath"><rect id="clipRect" height="52" width="49" x="101" y="191"></rect></clipPath><image id="pegman" height="52" width="1029" clip-path="url(#pegmanClipPath)" xlink:href="https://blockly.games/maze/pegman.png" x="-291" y="191" transform="rotate(0, 0, 0)"></image><g id="look" style="display: none;">
      <path d="M 0,-15 a 15 15 0 0 1 15 15" stroke="#000"></path>
      <path d="M 0,-35 a 35 35 0 0 1 35 35" stroke="#000"></path>
      <path d="M 0,-55 a 55 55 0 0 1 55 55" stroke="#000"></path>
    </g></svg>